<?xml version="1.0" encoding="UTF-8"?>
<svg xmlns="http://www.w3.org/2000/svg" xmlns:xlink="http://www.w3.org/1999/xlink" width="25pt" height="25pt" viewBox="0 0 25 25" version="1.1">
<g id="surface1">
<path style=" stroke:none;fill-rule:nonzero;fill:rgb(100%,100%,100%);fill-opacity:1;" d="M 0.5 2.25 C 0.371094 2.3125 0.230469 2.441406 0.15625 2.554688 C 0.0351562 2.734375 0.0234375 2.796875 0.0117188 3.359375 C -0.00390625 3.835938 0.0117188 4.011719 0.0742188 4.179688 C 0.15625 4.402344 0.421875 4.667969 0.601562 4.710938 C 0.660156 4.726562 1.515625 4.734375 2.496094 4.726562 L 4.28125 4.710938 L 4.457031 4.574219 C 4.625 4.453125 4.664062 4.441406 5.148438 4.441406 C 5.429688 4.441406 5.667969 4.457031 5.679688 4.476562 C 5.699219 4.507812 8.101562 13.816406 8.234375 14.363281 C 8.261719 14.496094 8.257812 14.5 8.078125 14.5 C 7.515625 14.5 6.839844 14.824219 6.347656 15.328125 C 5.34375 16.347656 5.246094 17.808594 6.109375 18.960938 C 6.558594 19.566406 7.164062 19.898438 8.0625 20.042969 L 8.242188 20.066406 L 8.148438 20.242188 C 7.910156 20.722656 7.925781 21.394531 8.1875 21.882812 C 8.359375 22.195312 8.726562 22.535156 9.074219 22.695312 C 9.308594 22.808594 9.417969 22.828125 9.789062 22.828125 C 10.191406 22.828125 10.265625 22.8125 10.558594 22.664062 C 11.34375 22.28125 11.757812 21.421875 11.554688 20.605469 C 11.507812 20.429688 11.441406 20.238281 11.398438 20.179688 L 11.328125 20.066406 L 19.136719 20.066406 L 19.039062 20.289062 C 18.535156 21.429688 19.300781 22.730469 20.539062 22.835938 C 21.5625 22.917969 22.433594 22.15625 22.5 21.121094 C 22.519531 20.796875 22.472656 20.5625 22.289062 20.15625 C 22.261719 20.078125 22.296875 20.066406 22.734375 20.066406 C 23.003906 20.066406 23.292969 20.046875 23.382812 20.019531 C 23.785156 19.90625 24.074219 19.574219 24.113281 19.1875 C 24.144531 18.828125 24.085938 18.617188 23.890625 18.402344 C 23.535156 18.007812 24.332031 18.046875 15.714844 18.015625 L 8.011719 17.992188 L 7.875 17.890625 C 7.675781 17.738281 7.558594 17.515625 7.558594 17.265625 C 7.558594 17 7.667969 16.792969 7.871094 16.640625 L 8.03125 16.527344 L 21.898438 16.480469 L 22.140625 16.363281 C 22.441406 16.210938 22.707031 15.953125 22.832031 15.671875 C 22.890625 15.550781 22.992188 15.214844 23.066406 14.921875 C 23.199219 14.390625 23.199219 14.382812 23.105469 14.261719 C 22.960938 14.066406 22.785156 14.023438 22.621094 14.140625 C 22.515625 14.222656 22.460938 14.34375 22.335938 14.8125 C 22.164062 15.449219 22.042969 15.632812 21.730469 15.726562 C 21.617188 15.757812 19.566406 15.769531 15.617188 15.761719 C 9.703125 15.746094 9.671875 15.746094 9.542969 15.644531 C 9.46875 15.589844 9.367188 15.492188 9.316406 15.425781 C 9.25 15.328125 7.082031 7.054688 7.082031 6.882812 C 7.082031 6.855469 7.503906 6.835938 8.273438 6.835938 C 8.925781 6.835938 9.503906 6.820312 9.546875 6.804688 C 9.671875 6.757812 9.761719 6.503906 9.707031 6.347656 C 9.640625 6.148438 9.484375 6.101562 8.8125 6.101562 L 8.207031 6.101562 L 8.160156 5.917969 C 8.136719 5.820312 7.980469 5.21875 7.8125 4.589844 C 7.648438 3.960938 7.472656 3.347656 7.417969 3.238281 C 7.28125 2.953125 6.953125 2.671875 6.621094 2.542969 C 6.378906 2.449219 6.246094 2.441406 5.449219 2.441406 C 4.671875 2.441406 4.546875 2.429688 4.488281 2.359375 C 4.320312 2.164062 4.171875 2.148438 2.40625 2.148438 C 0.765625 2.148438 0.699219 2.152344 0.5 2.25 Z M 4.054688 2.972656 C 4.113281 3.085938 4.117188 3.851562 4.0625 3.945312 C 4.027344 3.988281 3.664062 4.003906 2.386719 3.992188 L 0.757812 3.980469 L 0.742188 3.496094 C 0.734375 3.183594 0.746094 2.992188 0.785156 2.949219 C 0.832031 2.894531 1.128906 2.878906 2.421875 2.878906 C 3.929688 2.878906 4.003906 2.886719 4.054688 2.972656 Z M 6.445312 3.265625 C 6.539062 3.316406 6.65625 3.40625 6.703125 3.476562 C 6.78125 3.582031 7.417969 5.859375 7.421875 6.042969 C 7.421875 6.09375 7.347656 6.101562 7.144531 6.09375 L 6.859375 6.078125 L 6.585938 5.015625 C 6.386719 4.234375 6.285156 3.921875 6.207031 3.84375 C 6.113281 3.746094 6.039062 3.734375 5.46875 3.71875 L 4.835938 3.699219 L 4.835938 3.171875 L 5.558594 3.171875 C 6.164062 3.171875 6.304688 3.1875 6.445312 3.265625 Z M 8.519531 15.429688 C 8.554688 15.523438 8.597656 15.640625 8.617188 15.683594 C 8.648438 15.761719 8.617188 15.769531 8.355469 15.769531 C 7.496094 15.769531 6.832031 16.421875 6.832031 17.261719 C 6.832031 17.695312 6.957031 18.003906 7.269531 18.316406 C 7.75 18.789062 6.96875 18.75 15.601562 18.75 C 23.945312 18.75 23.390625 18.730469 23.390625 19.042969 C 23.390625 19.316406 23.277344 19.34375 22.183594 19.320312 C 21.652344 19.3125 21.089844 19.277344 20.9375 19.242188 C 20.707031 19.199219 20.585938 19.203125 20.304688 19.261719 C 19.761719 19.375 10.699219 19.371094 10.160156 19.257812 C 9.828125 19.1875 9.761719 19.1875 9.425781 19.257812 C 8.996094 19.34375 8.335938 19.359375 7.960938 19.285156 C 6.867188 19.082031 6.09375 17.992188 6.289062 16.941406 C 6.46875 15.964844 7.304688 15.210938 8.167969 15.25 C 8.449219 15.257812 8.457031 15.261719 8.519531 15.429688 Z M 10.292969 20.078125 C 10.667969 20.257812 10.933594 20.75 10.871094 21.15625 C 10.722656 22.078125 9.683594 22.425781 9.027344 21.777344 C 8.664062 21.410156 8.597656 20.933594 8.867188 20.472656 C 9.15625 19.976562 9.746094 19.8125 10.292969 20.078125 Z M 21.195312 20.074219 C 21.546875 20.25 21.777344 20.648438 21.777344 21.074219 C 21.773438 21.625 21.242188 22.117188 20.65625 22.117188 C 20.40625 22.117188 20.003906 21.914062 19.847656 21.707031 C 19.136719 20.769531 20.15625 19.539062 21.195312 20.074219 Z M 21.195312 20.074219 "/>
<path style=" stroke:none;fill-rule:nonzero;fill:rgb(100%,100%,100%);fill-opacity:1;" d="M 10.871094 6.207031 C 10.703125 6.335938 10.695312 6.582031 10.855469 6.726562 L 10.96875 6.835938 L 24.027344 6.835938 L 24.144531 6.957031 C 24.214844 7.019531 24.269531 7.113281 24.269531 7.164062 C 24.269531 7.210938 23.949219 8.5 23.558594 10.027344 C 22.925781 12.503906 22.855469 12.816406 22.910156 12.929688 C 23.023438 13.160156 23.421875 13.203125 23.535156 12.992188 C 23.609375 12.851562 25 7.363281 25 7.207031 C 25 6.777344 24.632812 6.277344 24.238281 6.160156 C 24.082031 6.117188 22.511719 6.101562 17.519531 6.101562 L 11 6.101562 Z M 10.871094 6.207031 "/>
<path style=" stroke:none;fill-rule:nonzero;fill:rgb(100%,100%,100%);fill-opacity:1;" d="M 9.984375 8.570312 C 9.917969 8.632812 9.863281 8.71875 9.863281 8.757812 C 9.863281 8.914062 10.953125 13.261719 11.015625 13.363281 C 11.15625 13.589844 11.519531 13.554688 11.632812 13.308594 C 11.671875 13.210938 11.660156 13.105469 11.582031 12.78125 C 11.527344 12.558594 11.28125 11.542969 11.03125 10.523438 C 10.546875 8.542969 10.511719 8.445312 10.230469 8.445312 C 10.160156 8.445312 10.050781 8.5 9.984375 8.570312 Z M 9.984375 8.570312 "/>
<path style=" stroke:none;fill-rule:nonzero;fill:rgb(100%,100%,100%);fill-opacity:1;" d="M 13.632812 8.558594 C 13.492188 8.710938 13.492188 8.707031 13.695312 11.210938 C 13.867188 13.296875 13.867188 13.304688 13.996094 13.414062 C 14.179688 13.582031 14.4375 13.542969 14.550781 13.328125 C 14.585938 13.261719 14.550781 12.625 14.429688 11.097656 C 14.332031 9.921875 14.242188 8.886719 14.230469 8.796875 C 14.175781 8.464844 13.84375 8.335938 13.632812 8.558594 Z M 13.632812 8.558594 "/>
<path style=" stroke:none;fill-rule:nonzero;fill:rgb(100%,100%,100%);fill-opacity:1;" d="M 17.261719 8.570312 C 17.191406 8.632812 17.140625 8.714844 17.140625 8.75 C 17.140625 8.785156 17.0625 9.734375 16.96875 10.863281 C 16.757812 13.378906 16.761719 13.296875 16.925781 13.421875 C 17.085938 13.550781 17.242188 13.554688 17.386719 13.433594 C 17.496094 13.34375 17.503906 13.269531 17.679688 11.152344 C 17.785156 9.945312 17.867188 8.894531 17.867188 8.824219 C 17.871094 8.652344 17.675781 8.445312 17.503906 8.445312 C 17.4375 8.445312 17.324219 8.5 17.261719 8.570312 Z M 17.261719 8.570312 "/>
<path style=" stroke:none;fill-rule:nonzero;fill:rgb(100%,100%,100%);fill-opacity:1;" d="M 20.941406 8.496094 C 20.898438 8.519531 20.839844 8.601562 20.8125 8.675781 C 20.71875 8.90625 19.726562 13.027344 19.726562 13.171875 C 19.726562 13.554688 20.257812 13.652344 20.402344 13.296875 C 20.492188 13.0625 21.484375 8.941406 21.484375 8.789062 C 21.484375 8.542969 21.15625 8.367188 20.941406 8.496094 Z M 20.941406 8.496094 "/>
</g>
</svg>
