<?xml version="1.0" encoding="UTF-8"?>
<svg xmlns="http://www.w3.org/2000/svg" xmlns:xlink="http://www.w3.org/1999/xlink" width="40pt" height="20pt" viewBox="0 0 40 20" version="1.1">
<g id="surface1">
<path style=" stroke:none;fill-rule:nonzero;fill:rgb(100%,100%,100%);fill-opacity:1;" d="M 0.0507812 9.992188 L 0.0507812 14.945312 L 39.949219 14.945312 L 39.949219 5.039062 L 0.0507812 5.039062 Z M 15.09375 6.761719 C 15.269531 6.824219 15.496094 6.875 15.605469 6.875 C 15.78125 6.875 15.800781 6.890625 15.84375 7.023438 C 15.875 7.101562 15.945312 7.210938 16 7.257812 C 16.058594 7.308594 16.128906 7.414062 16.15625 7.503906 C 16.21875 7.699219 16.253906 9.226562 16.195312 9.257812 C 16.171875 9.269531 16.148438 9.308594 16.15625 9.34375 C 16.15625 9.398438 16.164062 9.398438 16.195312 9.335938 C 16.308594 9.097656 16.339844 10.84375 16.226562 11.210938 C 16.164062 11.398438 16.15625 11.515625 16.191406 11.6875 C 16.246094 11.96875 16.144531 12.28125 15.898438 12.585938 C 15.746094 12.773438 15.601562 12.871094 15.601562 12.789062 C 15.601562 12.714844 15.523438 12.742188 15.476562 12.835938 C 15.445312 12.886719 15.296875 12.960938 15.074219 13.03125 C 14.460938 13.230469 13.699219 13.164062 13.214844 12.875 C 12.886719 12.679688 12.613281 12.140625 12.691406 11.820312 C 12.714844 11.726562 12.714844 11.605469 12.695312 11.554688 C 12.671875 11.507812 12.644531 10.601562 12.640625 9.539062 C 12.625 7.652344 12.625 7.609375 12.730469 7.496094 C 12.785156 7.429688 12.871094 7.292969 12.921875 7.1875 C 13.023438 6.964844 13.085938 6.921875 13.335938 6.890625 C 13.441406 6.875 13.558594 6.84375 13.601562 6.816406 C 13.96875 6.574219 14.523438 6.546875 15.09375 6.761719 Z M 22.339844 6.703125 C 22.511719 6.742188 22.710938 6.804688 22.78125 6.851562 C 22.851562 6.890625 22.996094 7.078125 23.105469 7.257812 L 23.304688 7.59375 L 23.300781 9.875 C 23.300781 12.101562 23.300781 12.152344 23.199219 12.234375 C 23.144531 12.285156 23.101562 12.347656 23.101562 12.382812 C 23.101562 12.414062 23.046875 12.5 22.976562 12.570312 C 22.90625 12.644531 22.851562 12.726562 22.851562 12.765625 C 22.851562 12.859375 22.609375 12.984375 22.230469 13.074219 C 21.523438 13.246094 20.960938 13.15625 20.585938 12.8125 C 20.464844 12.699219 20.296875 12.527344 20.210938 12.429688 L 20.050781 12.257812 L 20.050781 10.75 C 20.050781 9.921875 20.03125 9.234375 20.003906 9.210938 C 19.980469 9.1875 19.949219 8.859375 19.941406 8.46875 C 19.921875 7.832031 19.925781 7.757812 20.011719 7.679688 C 20.058594 7.625 20.101562 7.527344 20.101562 7.453125 C 20.101562 7.296875 20.398438 6.996094 20.554688 6.996094 C 20.613281 6.996094 20.648438 6.96875 20.648438 6.914062 C 20.648438 6.875 20.683594 6.835938 20.726562 6.835938 C 20.765625 6.835938 20.800781 6.816406 20.800781 6.796875 C 20.800781 6.773438 20.828125 6.757812 20.863281 6.761719 C 20.894531 6.765625 20.960938 6.761719 21 6.75 C 21.558594 6.589844 21.726562 6.585938 22.339844 6.703125 Z M 10.738281 6.808594 C 10.789062 6.859375 10.808594 8.085938 10.824219 11.449219 L 10.824219 11.96875 L 11 12.039062 C 11.140625 12.09375 11.25 12.105469 11.53125 12.085938 C 11.726562 12.078125 11.933594 12.0625 11.996094 12.046875 C 12.179688 12.023438 12.34375 12.109375 12.398438 12.265625 C 12.464844 12.445312 12.464844 12.894531 12.40625 12.929688 C 12.375 12.9375 11.738281 12.953125 10.984375 12.960938 C 9.414062 12.976562 9.449219 12.984375 9.394531 12.660156 C 9.351562 12.390625 9.394531 8.859375 9.441406 8.84375 C 9.464844 8.835938 9.46875 8.769531 9.460938 8.695312 C 9.449219 8.617188 9.464844 8.5 9.496094 8.429688 C 9.539062 8.328125 9.535156 8.3125 9.480469 8.351562 C 9.378906 8.417969 9.355469 8.296875 9.378906 7.84375 C 9.394531 7.632812 9.386719 7.332031 9.355469 7.175781 C 9.28125 6.769531 9.304688 6.757812 10.074219 6.757812 C 10.519531 6.757812 10.703125 6.773438 10.738281 6.808594 Z M 20.519531 6.859375 C 20.535156 6.890625 20.523438 6.914062 20.5 6.914062 C 20.46875 6.914062 20.449219 6.890625 20.449219 6.859375 C 20.449219 6.824219 20.460938 6.796875 20.46875 6.796875 C 20.480469 6.796875 20.5 6.824219 20.519531 6.859375 Z M 24.765625 6.867188 C 24.925781 7.007812 24.949219 7.34375 24.945312 9.515625 L 24.945312 11.664062 L 25.070312 11.816406 C 25.140625 11.898438 25.199219 11.988281 25.199219 12.015625 C 25.199219 12.039062 25.246094 12.078125 25.304688 12.085938 C 25.390625 12.113281 25.40625 12.140625 25.390625 12.25 C 25.363281 12.421875 25.378906 12.421875 25.46875 12.25 C 25.511719 12.171875 25.574219 12.109375 25.609375 12.109375 C 25.644531 12.109375 25.75 12.023438 25.839844 11.914062 C 26 11.726562 26 11.71875 26 11.257812 C 26 10.910156 25.984375 10.789062 25.941406 10.789062 C 25.894531 10.789062 25.890625 10.78125 25.929688 10.757812 C 26.015625 10.714844 26.046875 9.792969 25.964844 9.792969 C 25.890625 9.792969 25.878906 9.726562 25.949219 9.695312 C 26.035156 9.648438 26.003906 9.554688 25.90625 9.554688 C 25.761719 9.554688 25.730469 9.480469 25.859375 9.464844 C 25.949219 9.457031 25.980469 9.421875 25.988281 9.324219 C 26.003906 9.203125 26.003906 9.195312 25.828125 9.21875 C 25.710938 9.234375 25.648438 9.226562 25.648438 9.195312 C 25.648438 9.171875 25.699219 9.15625 25.765625 9.15625 C 25.988281 9.15625 26.023438 9.03125 26.039062 8.21875 C 26.050781 7.742188 26.035156 7.398438 26 7.285156 C 25.933594 7.070312 26 6.898438 26.15625 6.859375 C 26.210938 6.84375 26.429688 6.84375 26.65625 6.859375 C 27.210938 6.898438 27.195312 6.875 27.171875 7.816406 C 27.15625 8.230469 27.144531 8.589844 27.144531 8.613281 C 27.171875 11.648438 27.171875 11.71875 27.050781 12.0625 C 26.960938 12.324219 26.910156 12.40625 26.789062 12.480469 C 26.703125 12.527344 26.5 12.671875 26.328125 12.796875 L 26.015625 13.027344 L 24.851562 13.027344 L 24.640625 12.875 C 24.054688 12.457031 24.011719 12.414062 23.976562 12.210938 C 23.953125 12.09375 23.910156 11.9375 23.875 11.851562 C 23.796875 11.636719 23.726562 11.007812 23.738281 10.609375 C 23.746094 10.4375 23.761719 9.546875 23.765625 8.632812 C 23.769531 7.726562 23.796875 6.953125 23.820312 6.921875 C 23.851562 6.882812 23.925781 6.875 24.046875 6.882812 C 24.144531 6.898438 24.304688 6.882812 24.398438 6.851562 C 24.640625 6.785156 24.671875 6.785156 24.765625 6.867188 Z M 29.699219 6.8125 C 29.699219 6.851562 29.503906 6.867188 29.445312 6.835938 C 29.394531 6.808594 29.425781 6.796875 29.539062 6.796875 C 29.625 6.796875 29.699219 6.804688 29.699219 6.8125 Z M 29.351562 6.945312 C 29.363281 6.953125 29.375 7.175781 29.375 7.4375 C 29.375 7.699219 29.390625 7.914062 29.414062 7.914062 C 29.433594 7.914062 29.449219 7.78125 29.449219 7.617188 C 29.449219 7.421875 29.46875 7.316406 29.503906 7.316406 C 29.585938 7.316406 29.785156 7.140625 29.785156 7.070312 C 29.785156 7.03125 29.761719 7.007812 29.730469 7.007812 C 29.578125 7.007812 29.5 6.992188 29.5 6.957031 C 29.5 6.914062 30.609375 6.898438 30.65625 6.9375 C 30.703125 6.972656 30.59375 7.691406 30.539062 7.726562 C 30.503906 7.742188 30.386719 7.742188 30.273438 7.734375 C 30.035156 7.703125 29.886719 7.773438 29.898438 7.921875 C 29.933594 8.40625 29.941406 13.140625 29.898438 13.1875 C 29.863281 13.230469 29.726562 13.25 29.324219 13.257812 L 28.800781 13.273438 L 28.714844 13.117188 C 28.644531 12.984375 28.644531 12.914062 28.695312 12.527344 C 28.734375 12.203125 28.734375 11.941406 28.695312 11.546875 C 28.664062 11.253906 28.648438 10.722656 28.660156 10.371094 C 28.664062 10.019531 28.671875 9.304688 28.660156 8.78125 C 28.648438 7.679688 28.710938 7.78125 28.023438 7.742188 C 27.804688 7.734375 27.621094 7.71875 27.621094 7.71875 C 27.613281 7.714844 27.613281 7.542969 27.621094 7.335938 C 27.625 6.980469 27.628906 6.957031 27.734375 6.929688 C 27.855469 6.890625 29.304688 6.90625 29.351562 6.945312 Z M 18.390625 7.054688 C 18.75 7.105469 18.839844 7.136719 19.09375 7.292969 C 19.515625 7.554688 19.554688 7.648438 19.535156 8.476562 L 19.523438 9.132812 L 19.035156 9.140625 C 18.625 9.144531 18.539062 9.132812 18.503906 9.078125 C 18.480469 9.039062 18.464844 8.792969 18.480469 8.523438 C 18.496094 8.085938 18.488281 8.035156 18.394531 7.9375 C 18.296875 7.839844 18.128906 7.804688 18.019531 7.867188 C 17.890625 7.929688 17.804688 8.140625 17.851562 8.273438 C 17.871094 8.335938 17.878906 8.507812 17.859375 8.640625 C 17.816406 9.007812 17.820312 9.972656 17.871094 10.59375 C 17.894531 10.886719 17.914062 11.320312 17.921875 11.554688 C 17.925781 11.800781 17.949219 12.003906 17.980469 12.03125 C 18.066406 12.09375 18.351562 12.03125 18.375 11.933594 C 18.476562 11.566406 18.503906 10.75 18.421875 10.75 C 18.40625 10.75 18.355469 10.773438 18.296875 10.796875 C 18.210938 10.84375 18.183594 10.835938 18.125 10.773438 C 18.085938 10.730469 18.066406 10.65625 18.078125 10.609375 C 18.09375 10.554688 18.113281 10.378906 18.113281 10.214844 C 18.121094 10.042969 18.144531 9.914062 18.175781 9.914062 C 18.203125 9.914062 18.191406 9.890625 18.148438 9.875 C 17.984375 9.789062 18.195312 9.734375 18.738281 9.71875 C 19.035156 9.710938 19.355469 9.703125 19.449219 9.703125 L 19.625 9.695312 L 19.609375 9.929688 C 19.601562 10.0625 19.570312 10.324219 19.546875 10.511719 C 19.515625 10.699219 19.496094 11.132812 19.5 11.46875 C 19.515625 12.289062 19.53125 12.234375 19.355469 12.203125 C 19.140625 12.167969 19.011719 12.242188 19.039062 12.375 C 19.050781 12.4375 19.09375 12.519531 19.136719 12.554688 C 19.199219 12.617188 19.199219 12.636719 19.105469 12.742188 C 19.003906 12.851562 18.910156 12.890625 18.421875 13.015625 C 18.191406 13.074219 17.515625 13.015625 17.273438 12.921875 C 17.164062 12.871094 17.023438 12.78125 16.960938 12.710938 C 16.898438 12.644531 16.820312 12.585938 16.78125 12.585938 C 16.746094 12.585938 16.691406 12.542969 16.660156 12.488281 C 16.585938 12.355469 16.585938 12.335938 16.671875 12.359375 C 16.71875 12.375 16.738281 12.359375 16.730469 12.316406 C 16.71875 12.28125 16.699219 12.179688 16.679688 12.101562 C 16.660156 12.023438 16.671875 11.921875 16.695312 11.882812 C 16.71875 11.84375 16.761719 11.742188 16.773438 11.664062 C 16.789062 11.570312 16.835938 11.507812 16.890625 11.5 C 16.941406 11.484375 16.921875 11.476562 16.839844 11.476562 L 16.699219 11.46875 L 16.699219 10.855469 C 16.699219 10.25 16.699219 10.234375 16.816406 10.21875 C 16.921875 10.207031 16.921875 10.203125 16.824219 10.171875 C 16.679688 10.125 16.648438 10.070312 16.648438 9.875 C 16.648438 9.65625 16.734375 9.703125 16.765625 9.929688 C 16.78125 10.078125 16.785156 10.078125 16.789062 9.890625 C 16.796875 9.703125 16.710938 9.429688 16.703125 9.605469 C 16.699219 9.644531 16.679688 9.667969 16.660156 9.65625 C 16.59375 9.625 16.636719 8.445312 16.71875 8.042969 C 16.765625 7.816406 16.835938 7.625 16.898438 7.5625 C 16.953125 7.496094 17 7.421875 17 7.390625 C 17 7.292969 17.640625 7.023438 17.925781 7 C 17.953125 6.996094 18.160156 7.023438 18.390625 7.054688 Z M 27.535156 8.921875 C 27.519531 8.953125 27.503906 8.941406 27.503906 8.898438 C 27.5 8.851562 27.515625 8.828125 27.53125 8.84375 C 27.546875 8.859375 27.550781 8.894531 27.535156 8.921875 Z M 25.398438 9.296875 C 25.398438 9.335938 25.433594 9.382812 25.476562 9.414062 C 25.515625 9.453125 25.550781 9.496094 25.550781 9.523438 C 25.550781 9.539062 25.515625 9.554688 25.476562 9.539062 C 25.425781 9.523438 25.398438 9.539062 25.398438 9.601562 C 25.398438 9.648438 25.386719 9.671875 25.371094 9.660156 C 25.316406 9.617188 25.300781 9.1875 25.351562 9.210938 C 25.378906 9.226562 25.398438 9.265625 25.398438 9.296875 Z M 25.789062 9.636719 C 25.78125 9.660156 25.75 9.675781 25.726562 9.675781 C 25.699219 9.675781 25.671875 9.660156 25.660156 9.636719 C 25.648438 9.613281 25.679688 9.59375 25.726562 9.59375 C 25.769531 9.59375 25.800781 9.613281 25.789062 9.636719 Z M 27.5 9.765625 C 27.5 9.78125 27.480469 9.800781 27.449219 9.8125 C 27.425781 9.824219 27.398438 9.816406 27.398438 9.796875 C 27.398438 9.773438 27.425781 9.75 27.449219 9.75 C 27.480469 9.75 27.5 9.757812 27.5 9.765625 Z M 25.699219 10.316406 C 25.734375 10.359375 25.746094 10.414062 25.726562 10.421875 C 25.691406 10.453125 25.550781 10.324219 25.550781 10.265625 C 25.550781 10.199219 25.644531 10.234375 25.699219 10.316406 Z M 25.949219 10.511719 C 25.949219 10.554688 25.929688 10.59375 25.898438 10.59375 C 25.875 10.59375 25.851562 10.617188 25.851562 10.648438 C 25.851562 10.703125 25.828125 10.707031 25.75 10.671875 C 25.695312 10.648438 25.648438 10.601562 25.648438 10.566406 C 25.648438 10.523438 25.679688 10.515625 25.75 10.53125 C 25.820312 10.550781 25.851562 10.539062 25.851562 10.496094 C 25.851562 10.460938 25.875 10.429688 25.898438 10.429688 C 25.929688 10.429688 25.949219 10.46875 25.949219 10.511719 Z M 25.425781 10.675781 C 25.476562 10.789062 25.421875 10.8125 25.300781 10.730469 C 25.175781 10.640625 25.175781 10.59375 25.296875 10.59375 C 25.351562 10.59375 25.410156 10.625 25.425781 10.675781 Z M 27.605469 10.648438 C 27.628906 10.632812 27.648438 10.648438 27.648438 10.671875 C 27.648438 10.730469 27.535156 10.699219 27.519531 10.640625 C 27.515625 10.609375 27.519531 10.609375 27.535156 10.632812 C 27.546875 10.648438 27.578125 10.664062 27.605469 10.648438 Z M 25.699219 10.871094 C 25.699219 10.894531 25.65625 10.910156 25.601562 10.910156 C 25.535156 10.910156 25.5 10.882812 25.5 10.828125 C 25.5 10.757812 25.515625 10.753906 25.601562 10.789062 C 25.65625 10.8125 25.699219 10.851562 25.699219 10.871094 Z M 16.585938 11.597656 C 16.570312 11.625 16.558594 11.605469 16.558594 11.546875 C 16.558594 11.492188 16.570312 11.476562 16.585938 11.5 C 16.59375 11.523438 16.59375 11.574219 16.585938 11.597656 Z M 16.585938 11.597656 "/>
<path style=" stroke:none;fill-rule:nonzero;fill:rgb(100%,100%,100%);fill-opacity:1;" d="M 14.148438 7.796875 C 13.949219 7.953125 13.890625 8.148438 13.863281 8.714844 C 13.84375 9.046875 13.816406 9.265625 13.78125 9.285156 C 13.738281 9.308594 13.738281 9.324219 13.789062 9.34375 C 13.871094 9.367188 13.871094 9.800781 13.789062 9.863281 C 13.75 9.898438 13.746094 9.914062 13.785156 9.914062 C 13.824219 9.914062 13.84375 10.164062 13.851562 10.738281 C 13.859375 11.949219 13.855469 11.921875 14.203125 12.121094 C 14.386719 12.226562 14.40625 12.226562 14.535156 12.171875 C 14.875 12.039062 14.859375 12.09375 14.855469 10.566406 C 14.851562 9.804688 14.835938 9.171875 14.820312 9.148438 C 14.808594 9.132812 14.785156 8.96875 14.773438 8.785156 C 14.761719 8.601562 14.746094 8.34375 14.734375 8.214844 C 14.710938 7.882812 14.613281 7.742188 14.414062 7.726562 C 14.304688 7.714844 14.226562 7.734375 14.148438 7.796875 Z M 14.300781 8.492188 C 14.300781 8.523438 14.28125 8.554688 14.25 8.554688 C 14.226562 8.554688 14.199219 8.523438 14.199219 8.492188 C 14.199219 8.460938 14.226562 8.433594 14.25 8.433594 C 14.28125 8.433594 14.300781 8.460938 14.300781 8.492188 Z M 16 10.179688 C 16 10.25 16.011719 10.3125 16.019531 10.3125 C 16.066406 10.3125 16.085938 10.15625 16.046875 10.109375 C 16.015625 10.070312 16 10.09375 16 10.179688 Z M 12.875 10.429688 C 12.890625 10.453125 12.914062 10.46875 12.929688 10.46875 C 12.941406 10.46875 12.949219 10.453125 12.949219 10.429688 C 12.949219 10.40625 12.925781 10.390625 12.894531 10.390625 C 12.871094 10.390625 12.859375 10.40625 12.875 10.429688 Z M 15.785156 11.203125 C 15.769531 11.234375 15.773438 11.28125 15.800781 11.304688 C 15.824219 11.34375 15.839844 11.320312 15.839844 11.253906 C 15.839844 11.140625 15.824219 11.125 15.785156 11.203125 Z M 15.691406 12.046875 C 15.664062 12.179688 15.640625 12.332031 15.625 12.390625 C 15.609375 12.445312 15.636719 12.414062 15.675781 12.328125 C 15.71875 12.242188 15.746094 12.085938 15.738281 11.988281 L 15.726562 11.808594 Z M 20.628906 7.015625 C 20.546875 7.070312 20.53125 7.128906 20.53125 7.472656 C 20.523438 7.6875 20.539062 7.859375 20.566406 7.847656 C 20.585938 7.839844 20.601562 7.714844 20.601562 7.570312 C 20.601562 7.398438 20.621094 7.316406 20.664062 7.316406 C 20.71875 7.3125 20.976562 7.039062 20.941406 7.015625 C 20.871094 6.96875 20.703125 6.96875 20.628906 7.015625 Z M 21.300781 7.710938 C 21.191406 7.875 21.101562 8.3125 21.101562 8.679688 C 21.101562 8.921875 21.078125 9.078125 21.046875 9.097656 C 21.003906 9.117188 21.003906 9.128906 21.046875 9.148438 C 21.089844 9.171875 21.121094 10.445312 21.09375 11.269531 C 21.089844 11.4375 21.246094 11.960938 21.324219 12.03125 C 21.445312 12.132812 21.710938 12.167969 21.878906 12.101562 C 22.089844 12.015625 22.214844 11.71875 22.15625 11.433594 C 22.128906 11.3125 22.105469 10.46875 22.101562 9.554688 C 22.09375 7.585938 22.109375 7.636719 21.574219 7.636719 C 21.410156 7.636719 21.339844 7.65625 21.300781 7.710938 Z M 20.613281 7.984375 C 20.570312 7.996094 20.550781 8.09375 20.550781 8.265625 C 20.554688 8.589844 20.640625 8.523438 20.664062 8.179688 C 20.675781 8.054688 20.679688 7.953125 20.679688 7.960938 C 20.675781 7.960938 20.644531 7.96875 20.613281 7.984375 Z M 20.550781 8.648438 C 20.550781 8.6875 20.574219 8.714844 20.601562 8.714844 C 20.628906 8.714844 20.648438 8.695312 20.648438 8.679688 C 20.648438 8.65625 20.628906 8.625 20.601562 8.613281 C 20.574219 8.601562 20.550781 8.617188 20.550781 8.648438 Z M 20.554688 9.140625 C 20.558594 9.253906 20.574219 9.289062 20.585938 9.226562 C 20.59375 9.164062 20.644531 9.109375 20.691406 9.101562 C 20.765625 9.085938 20.765625 9.082031 20.683594 9.078125 C 20.636719 9.078125 20.605469 9.054688 20.625 9.039062 C 20.640625 9.015625 20.628906 8.992188 20.601562 8.976562 C 20.570312 8.957031 20.554688 9.023438 20.554688 9.140625 Z M 20.476562 10.148438 C 20.460938 10.167969 20.46875 10.195312 20.5 10.210938 C 20.523438 10.226562 20.550781 10.207031 20.550781 10.175781 C 20.550781 10.101562 20.519531 10.09375 20.476562 10.148438 Z M 20.613281 10.53125 C 20.613281 10.5625 20.636719 10.578125 20.660156 10.566406 C 20.679688 10.554688 20.699219 10.53125 20.699219 10.507812 C 20.699219 10.484375 20.679688 10.46875 20.660156 10.46875 C 20.636719 10.46875 20.613281 10.5 20.613281 10.53125 Z M 20.601562 10.757812 C 20.570312 10.976562 20.570312 11.269531 20.605469 11.269531 C 20.628906 11.269531 20.648438 11.210938 20.65625 11.140625 C 20.65625 11.070312 20.660156 10.953125 20.664062 10.878906 C 20.671875 10.8125 20.660156 10.75 20.640625 10.75 C 20.613281 10.75 20.601562 10.753906 20.601562 10.757812 Z M 25.300781 12.734375 C 25.300781 12.804688 25.308594 12.867188 25.320312 12.867188 C 25.363281 12.867188 25.386719 12.710938 25.34375 12.664062 C 25.316406 12.625 25.300781 12.648438 25.300781 12.734375 Z M 29.464844 8.3125 C 29.386719 8.410156 29.378906 8.515625 29.449219 8.515625 C 29.519531 8.515625 29.558594 8.421875 29.539062 8.3125 C 29.523438 8.230469 29.523438 8.230469 29.464844 8.3125 Z M 29.410156 8.738281 C 29.394531 8.886719 29.464844 8.957031 29.5 8.835938 C 29.535156 8.730469 29.515625 8.632812 29.453125 8.632812 C 29.433594 8.632812 29.414062 8.679688 29.410156 8.738281 Z M 29.40625 9.164062 C 29.410156 9.257812 29.425781 9.292969 29.433594 9.242188 C 29.445312 9.195312 29.496094 9.15625 29.539062 9.148438 C 29.59375 9.148438 29.601562 9.136719 29.566406 9.125 C 29.53125 9.117188 29.5 9.082031 29.5 9.046875 C 29.5 9.015625 29.480469 8.992188 29.449219 8.992188 C 29.425781 8.992188 29.40625 9.070312 29.40625 9.164062 Z M 29.449219 9.617188 C 29.449219 9.648438 29.476562 9.664062 29.5 9.652344 C 29.53125 9.636719 29.539062 9.609375 29.523438 9.585938 C 29.480469 9.53125 29.449219 9.546875 29.449219 9.617188 Z M 29.351562 10.210938 C 29.351562 10.242188 29.359375 10.273438 29.371094 10.273438 C 29.378906 10.273438 29.398438 10.242188 29.421875 10.210938 C 29.433594 10.179688 29.425781 10.152344 29.398438 10.152344 C 29.371094 10.152344 29.351562 10.179688 29.351562 10.210938 Z M 29.449219 10.828125 C 29.449219 10.953125 29.433594 11.117188 29.414062 11.1875 C 29.394531 11.285156 29.398438 11.320312 29.449219 11.304688 C 29.511719 11.285156 29.523438 11.195312 29.546875 10.742188 C 29.550781 10.664062 29.578125 10.632812 29.664062 10.617188 C 29.746094 10.609375 29.730469 10.601562 29.613281 10.59375 L 29.449219 10.59375 Z M 17.261719 8.515625 C 17.261719 8.570312 17.269531 8.589844 17.285156 8.5625 C 17.296875 8.539062 17.296875 8.492188 17.285156 8.460938 C 17.269531 8.4375 17.261719 8.460938 17.261719 8.515625 Z M 17.136719 9.15625 C 17.113281 9.210938 17.105469 9.351562 17.105469 9.472656 L 17.109375 9.695312 L 17.15625 9.453125 C 17.210938 9.171875 17.195312 8.992188 17.136719 9.15625 Z M 17.011719 10.109375 C 16.929688 10.214844 16.933594 10.234375 17.039062 10.234375 C 17.164062 10.234375 17.195312 10.203125 17.164062 10.109375 C 17.128906 10.011719 17.089844 10.011719 17.011719 10.109375 Z M 16.90625 10.535156 C 16.90625 10.578125 16.921875 10.59375 16.933594 10.558594 C 16.949219 10.53125 16.945312 10.496094 16.929688 10.484375 C 16.914062 10.46875 16.898438 10.492188 16.90625 10.535156 Z M 16.851562 10.75 C 16.851562 10.773438 16.875 10.789062 16.90625 10.789062 C 16.929688 10.789062 16.941406 10.773438 16.925781 10.75 C 16.910156 10.726562 16.886719 10.710938 16.871094 10.710938 C 16.859375 10.710938 16.851562 10.726562 16.851562 10.75 Z M 16.800781 10.929688 C 16.800781 10.960938 16.824219 10.992188 16.851562 10.992188 C 16.878906 10.992188 16.898438 10.960938 16.898438 10.929688 C 16.898438 10.898438 16.878906 10.871094 16.851562 10.871094 C 16.824219 10.871094 16.800781 10.898438 16.800781 10.929688 Z M 16.871094 12.296875 C 16.824219 12.351562 16.835938 12.398438 16.914062 12.507812 C 16.964844 12.585938 17.019531 12.65625 17.023438 12.660156 C 17.046875 12.675781 17.199219 12.445312 17.199219 12.40625 C 17.199219 12.398438 17.144531 12.390625 17.078125 12.390625 C 16.996094 12.390625 16.949219 12.363281 16.941406 12.308594 C 16.925781 12.234375 16.921875 12.234375 16.871094 12.296875 Z M 16.871094 12.296875 "/>
</g>
</svg>
